Wavefont-wmin,rmax,amax,smin.ufo
<glyph name="_4" format="2">
	<unicode hex="0104"/>
	<unicode hex="0063"/>
	<advance width="25"/>
	<outline>
		<component base="cap" yOffset="960"/>
		<component base="cap" yOffset="992"/>
		<contour>
			<point x="0" y="964" type="line"/>
			<point x="0" y="996" type="line"/>
			<point x="8" y="996" type="line"/>
			<point x="8" y="964" type="line"/>
		</contour>
	</outline>
</glyph>
<glyph name="_5" format="2">
	<unicode hex="0105"/>
	<advance width="25"/>
	<outline>
		<component base="cap" yOffset="950"/>
		<component base="cap" yOffset="992"/>
		<contour>
			<point x="0" y="954" type="line"/>
			<point x="0" y="996" type="line"/>
			<point x="8" y="996" type="line"/>
			<point x="8" y="954" type="line"/>
		</contour>
	</outline>
</glyph>
<glyph name="_8" format="2">
	<unicode hex="0108"/>
	<unicode hex="0065"/>
	<advance width="25"/>
	<outline>
		<component base="cap" yOffset="920"/>
		<component base="cap" yOffset="992"/>
		<contour>
			<point x="0" y="924" type="line"/>
			<point x="0" y="996" type="line"/>
			<point x="8" y="996" type="line"/>
			<point x="8" y="924" type="line"/>
		</contour>
	</outline>
</glyph>
<glyph name="_12" format="2">
	<unicode hex="010C"/>
	<unicode hex="0067"/>
	<advance width="25"/>
	<outline>
		<component base="cap" yOffset="880"/>
		<component base="cap" yOffset="992"/>
		<contour>
			<point x="0" y="884" type="line"/>
			<point x="0" y="996" type="line"/>
			<point x="8" y="996" type="line"/>
			<point x="8" y="884" type="line"/>
		</contour>
	</outline>
</glyph>
<glyph name="_14" format="2">
	<unicode hex="010E"/>
	<unicode hex="2582"/>
	<unicode hex="0068"/>
	<advance width="25"/>
	<outline>
		<component base="cap" yOffset="860"/>
		<component base="cap" yOffset="992"/>
		<contour>
			<point x="0" y="864" type="line"/>
			<point x="0" y="996" type="line"/>
			<point x="8" y="996" type="line"/>
			<point x="8" y="864" type="line"/>
		</contour>
	</outline>
</glyph>
<glyph name="_18" format="2">
	<unicode hex="0112"/>
	<unicode hex="006A"/>
	<advance width="25"/>
	<outline>
		<component base="cap" yOffset="820"/>
		<component base="cap" yOffset="992"/>
		<contour>
			<point x="0" y="824" type="line"/>
			<point x="0" y="996" type="line"/>
			<point x="8" y="996" type="line"/>
			<point x="8" y="824" type="line"/>
		</contour>
	</outline>
</glyph>
<glyph name="_19" format="2">
	<unicode hex="0113"/>
	<advance width="25"/>
	<outline>
		<component base="cap" yOffset="810"/>
		<component base="cap" yOffset="992"/>
		<contour>
			<point x="0" y="814" type="line"/>
			<point x="0" y="996" type="line"/>
			<point x="8" y="996" type="line"/>
			<point x="8" y="814" type="line"/>
		</contour>
	</outline>
</glyph>
<glyph name="_21" format="2">
	<unicode hex="0115"/>
	<advance width="25"/>
	<outline>
		<component base="cap" yOffset="790"/>
		<component base="cap" yOffset="992"/>
		<contour>
			<point x="0" y="794" type="line"/>
			<point x="0" y="996" type="line"/>
			<point x="8" y="996" type="line"/>
			<point x="8" y="794" type="line"/>
		</contour>
	</outline>
</glyph>
<glyph name="_24" format="2">
	<unicode hex="0118"/>
	<unicode hex="006D"/>
	<advance width="25"/>
	<outline>
		<component base="cap" yOffset="760"/>
		<component base="cap" yOffset="992"/>
		<contour>
			<point x="0" y="764" type="line"/>
			<point x="0" y="996" type="line"/>
			<point x="8" y="996" type="line"/>
			<point x="8" y="764" type="line"/>
		</contour>
	</outline>
</glyph>
<glyph name="_27" format="2">
	<unicode hex="011B"/>
	<advance width="25"/>
	<outline>
		<component base="cap" yOffset="730"/>
		<component base="cap" yOffset="992"/>
		<contour>
			<point x="0" y="734" type="line"/>
			<point x="0" y="996" type="line"/>
			<point x="8" y="996" type="line"/>
			<point x="8" y="734" type="line"/>
		</contour>
	</outline>
</glyph>
<glyph name="_28" format="2">
	<unicode hex="011C"/>
	<unicode hex="2583"/>
	<unicode hex="006F"/>
	<advance width="25"/>
	<outline>
		<component base="cap" yOffset="720"/>
		<component base="cap" yOffset="992"/>
		<contour>
			<point x="0" y="724" type="line"/>
			<point x="0" y="996" type="line"/>
			<point x="8" y="996" type="line"/>
			<point x="8" y="724" type="line"/>
		</contour>
	</outline>
</glyph>
<glyph name="_32" format="2">
	<unicode hex="0120"/>
	<unicode hex="0071"/>
	<advance width="25"/>
	<outline>
		<component base="cap" yOffset="680"/>
		<component base="cap" yOffset="992"/>
		<contour>
			<point x="0" y="684" type="line"/>
			<point x="0" y="996" type="line"/>
			<point x="8" y="996" type="line"/>
			<point x="8" y="684" type="line"/>
		</contour>
	</outline>
</glyph>
<glyph name="_35" format="2">
	<unicode hex="0123"/>
	<advance width="25"/>
	<outline>
		<component base="cap" yOffset="650"/>
		<component base="cap" yOffset="992"/>
		<contour>
			<point x="0" y="654" type="line"/>
			<point x="0" y="996" type="line"/>
			<point x="8" y="996" type="line"/>
			<point x="8" y="654" type="line"/>
		</contour>
	</outline>
</glyph>
<glyph name="_45" format="2">
	<unicode hex="012D"/>
	<advance width="25"/>
	<outline>
		<component base="cap" yOffset="550"/>
		<component base="cap" yOffset="992"/>
		<contour>
			<point x="0" y="554" type="line"/>
			<point x="0" y="996" type="line"/>
			<point x="8" y="996" type="line"/>
			<point x="8" y="554" type="line"/>
		</contour>
	</outline>
</glyph>
<glyph name="_47" format="2">
	<unicode hex="012F"/>
	<advance width="25"/>
	<outline>
		<component base="cap" yOffset="530"/>
		<component base="cap" yOffset="992"/>
		<contour>
			<point x="0" y="534" type="line"/>
			<point x="0" y="996" type="line"/>
			<point x="8" y="996" type="line"/>
			<point x="8" y="534" type="line"/>
		</contour>
	</outline>
</glyph>
<glyph name="_53" format="2">
	<unicode hex="0135"/>
	<advance width="25"/>
	<outline>
		<component base="cap" yOffset="470"/>
		<component base="cap" yOffset="992"/>
		<contour>
			<point x="0" y="474" type="line"/>
			<point x="0" y="996" type="line"/>
			<point x="8" y="996" type="line"/>
			<point x="8" y="474" type="line"/>
		</contour>
	</outline>
</glyph>
<glyph name="_54" format="2">
	<unicode hex="0136"/>
	<unicode hex="0042"/>
	<advance width="25"/>
	<outline>
		<component base="cap" yOffset="460"/>
		<component base="cap" yOffset="992"/>
		<contour>
			<point x="0" y="464" type="line"/>
			<point x="0" y="996" type="line"/>
			<point x="8" y="996" type="line"/>
			<point x="8" y="464" type="line"/>
		</contour>
	</outline>
</glyph>
<glyph name="_56" format="2">
	<unicode hex="0138"/>
	<unicode hex="2585"/>
	<unicode hex="0043"/>
	<advance width="25"/>
	<outline>
		<component base="cap" yOffset="440"/>
		<component base="cap" yOffset="992"/>
		<contour>
			<point x="0" y="444" type="line"/>
			<point x="0" y="996" type="line"/>
			<point x="8" y="996" type="line"/>
			<point x="8" y="444" type="line"/>
		</contour>
	</outline>
</glyph>
<glyph name="_57" format="2">
	<unicode hex="0139"/>
	<advance width="25"/>
	<outline>
		<component base="cap" yOffset="430"/>
		<component base="cap" yOffset="992"/>
		<contour>
			<point x="0" y="434" type="line"/>
			<point x="0" y="996" type="line"/>
			<point x="8" y="996" type="line"/>
			<point x="8" y="434" type="line"/>
		</contour>
	</outline>
</glyph>
<glyph name="_58" format="2">
	<unicode hex="013A"/>
	<unicode hex="0044"/>
	<advance width="25"/>
	<outline>
		<component base="cap" yOffset="420"/>
		<component base="cap" yOffset="992"/>
		<contour>
			<point x="0" y="424" type="line"/>
			<point x="0" y="996" type="line"/>
			<point x="8" y="996" type="line"/>
			<point x="8" y="424" type="line"/>
		</contour>
	</outline>
</glyph>
<glyph name="_60" format="2">
	<unicode hex="013C"/>
	<unicode hex="0036"/>
	<unicode hex="0045"/>
	<advance width="25"/>
	<outline>
		<component base="cap" yOffset="400"/>
		<component base="cap" yOffset="992"/>
		<contour>
			<point x="0" y="404" type="line"/>
			<point x="0" y="996" type="line"/>
			<point x="8" y="996" type="line"/>
			<point x="8" y="404" type="line"/>
		</contour>
	</outline>
</glyph>
<glyph name="_61" format="2">
	<unicode hex="013D"/>
	<advance width="25"/>
	<outline>
		<component base="cap" yOffset="390"/>
		<component base="cap" yOffset="992"/>
		<contour>
			<point x="0" y="394" type="line"/>
			<point x="0" y="996" type="line"/>
			<point x="8" y="996" type="line"/>
			<point x="8" y="394" type="line"/>
		</contour>
	</outline>
</glyph>
<glyph name="_63" format="2">
	<unicode hex="013F"/>
	<advance width="25"/>
	<outline>
		<component base="cap" yOffset="370"/>
		<component base="cap" yOffset="992"/>
		<contour>
			<point x="0" y="374" type="line"/>
			<point x="0" y="996" type="line"/>
			<point x="8" y="996" type="line"/>
			<point x="8" y="374" type="line"/>
		</contour>
	</outline>
</glyph>
<glyph name="_65" format="2">
	<unicode hex="0141"/>
	<advance width="25"/>
	<outline>
		<component base="cap" yOffset="350"/>
		<component base="cap" yOffset="992"/>
		<contour>
			<point x="0" y="354" type="line"/>
			<point x="0" y="996" type="line"/>
			<point x="8" y="996" type="line"/>
			<point x="8" y="354" type="line"/>
		</contour>
	</outline>
</glyph>
<glyph name="_68" format="2">
	<unicode hex="0144"/>
	<unicode hex="0049"/>
	<advance width="25"/>
	<outline>
		<component base="cap" yOffset="320"/>
		<component base="cap" yOffset="992"/>
		<contour>
			<point x="0" y="324" type="line"/>
			<point x="0" y="996" type="line"/>
			<point x="8" y="996" type="line"/>
			<point x="8" y="324" type="line"/>
		</contour>
	</outline>
</glyph>
<glyph name="_69" format="2">
	<unicode hex="0145"/>
	<advance width="25"/>
	<outline>
		<component base="cap" yOffset="310"/>
		<component base="cap" yOffset="992"/>
		<contour>
			<point x="0" y="314" type="line"/>
			<point x="0" y="996" type="line"/>
			<point x="8" y="996" type="line"/>
			<point x="8" y="314" type="line"/>
		</contour>
	</outline>
</glyph>
<glyph name="_70" format="2">
	<unicode hex="0146"/>
	<unicode hex="0037"/>
	<unicode hex="004A"/>
	<advance width="25"/>
	<outline>
		<component base="cap" yOffset="300"/>
		<component base="cap" yOffset="992"/>
		<contour>
			<point x="0" y="304" type="line"/>
			<point x="0" y="996" type="line"/>
			<point x="8" y="996" type="line"/>
			<point x="8" y="304" type="line"/>
		</contour>
	</outline>
</glyph>
<glyph name="_72" format="2">
	<unicode hex="0148"/>
	<unicode hex="2586"/>
	<unicode hex="004B"/>
	<advance width="25"/>
	<outline>
		<component base="cap" yOffset="280"/>
		<component base="cap" yOffset="992"/>
		<contour>
			<point x="0" y="284" type="line"/>
			<point x="0" y="996" type="line"/>
			<point x="8" y="996" type="line"/>
			<point x="8" y="284" type="line"/>
		</contour>
	</outline>
</glyph>
<glyph name="_73" format="2">
	<unicode hex="0149"/>
	<advance width="25"/>
	<outline>
		<component base="cap" yOffset="270"/>
		<component base="cap" yOffset="992"/>
		<contour>
			<point x="0" y="274" type="line"/>
			<point x="0" y="996" type="line"/>
			<point x="8" y="996" type="line"/>
			<point x="8" y="274" type="line"/>
		</contour>
	</outline>
</glyph>
<glyph name="_77" format="2">
	<unicode hex="014D"/>
	<advance width="25"/>
	<outline>
		<component base="cap" yOffset="230"/>
		<component base="cap" yOffset="992"/>
		<contour>
			<point x="0" y="234" type="line"/>
			<point x="0" y="996" type="line"/>
			<point x="8" y="996" type="line"/>
			<point x="8" y="234" type="line"/>
		</contour>
	</outline>
</glyph>
<glyph name="_79" format="2">
	<unicode hex="014F"/>
	<advance width="25"/>
	<outline>
		<component base="cap" yOffset="210"/>
		<component base="cap" yOffset="992"/>
		<contour>
			<point x="0" y="214" type="line"/>
			<point x="0" y="996" type="line"/>
			<point x="8" y="996" type="line"/>
			<point x="8" y="214" type="line"/>
		</contour>
	</outline>
</glyph>
<glyph name="_82" format="2">
	<unicode hex="0152"/>
	<unicode hex="0050"/>
	<advance width="25"/>
	<outline>
		<component base="cap" yOffset="180"/>
		<component base="cap" yOffset="992"/>
		<contour>
			<point x="0" y="184" type="line"/>
			<point x="0" y="996" type="line"/>
			<point x="8" y="996" type="line"/>
			<point x="8" y="184" type="line"/>
		</contour>
	</outline>
</glyph>
<glyph name="_87" format="2">
	<unicode hex="0157"/>
	<advance width="25"/>
	<outline>
		<component base="cap" yOffset="130"/>
		<component base="cap" yOffset="992"/>
		<contour>
			<point x="0" y="134" type="line"/>
			<point x="0" y="996" type="line"/>
			<point x="8" y="996" type="line"/>
			<point x="8" y="134" type="line"/>
		</contour>
	</outline>
</glyph>
<glyph name="_89" format="2">
	<unicode hex="0159"/>
	<advance width="25"/>
	<outline>
		<component base="cap" yOffset="110"/>
		<component base="cap" yOffset="992"/>
		<contour>
			<point x="0" y="114" type="line"/>
			<point x="0" y="996" type="line"/>
			<point x="8" y="996" type="line"/>
			<point x="8" y="114" type="line"/>
		</contour>
	</outline>
</glyph>
<glyph name="_94" format="2">
	<unicode hex="015E"/>
	<unicode hex="0056"/>
	<advance width="25"/>
	<outline>
		<component base="cap" yOffset="60"/>
		<component base="cap" yOffset="992"/>
		<contour>
			<point x="0" y="64" type="line"/>
			<point x="0" y="996" type="line"/>
			<point x="8" y="996" type="line"/>
			<point x="8" y="64" type="line"/>
		</contour>
	</outline>
</glyph>
<glyph name="_99" format="2">
	<unicode hex="0163"/>
	<unicode hex="0059"/>
	<advance width="25"/>
	<outline>
		<component base="cap" yOffset="10"/>
		<component base="cap" yOffset="992"/>
		<contour>
			<point x="0" y="14" type="line"/>
			<point x="0" y="996" type="line"/>
			<point x="8" y="996" type="line"/>
			<point x="8" y="14" type="line"/>
		</contour>
	</outline>
</glyph>
<glyph name="_100" format="2">
	<unicode hex="0164"/>
	<unicode hex="007C"/>
	<unicode hex="2588"/>
	<unicode hex="005A"/>
	<advance width="25"/>
	<outline>
		<component base="cap"/>
		<component base="cap" yOffset="992"/>
		<contour>
			<point x="0" y="4" type="line"/>
			<point x="0" y="996" type="line"/>
			<point x="8" y="996" type="line"/>
			<point x="8" y="4" type="line"/>
		</contour>
	</outline>
</glyph>
<glyph name="_104" format="2">
	<unicode hex="0168"/>
	<advance width="25"/>
	<outline>
		<component base="cap" yOffset="-40"/>
		<component base="cap" yOffset="992"/>
		<contour>
			<point x="0" y="-36" type="line"/>
			<point x="0" y="996" type="line"/>
			<point x="8" y="996" type="line"/>
			<point x="8" y="-36" type="line"/>
		</contour>
	</outline>
</glyph>
<glyph name="_107" format="2">
	<unicode hex="016B"/>
	<advance width="25"/>
	<outline>
		<component base="cap" yOffset="-70"/>
		<component base="cap" yOffset="992"/>
		<contour>
			<point x="0" y="-66" type="line"/>
			<point x="0" y="996" type="line"/>
			<point x="8" y="996" type="line"/>
			<point x="8" y="-66" type="line"/>
		</contour>
	</outline>
</glyph>
<glyph name="_109" format="2">
	<unicode hex="016D"/>
	<advance width="25"/>
	<outline>
		<component base="cap" yOffset="-90"/>
		<component base="cap" yOffset="992"/>
		<contour>
			<point x="0" y="-86" type="line"/>
			<point x="0" y="996" type="line"/>
			<point x="8" y="996" type="line"/>
			<point x="8" y="-86" type="line"/>
		</contour>
	</outline>
</glyph>
<glyph name="_116" format="2">
	<unicode hex="0174"/>
	<advance width="25"/>
	<outline>
		<component base="cap" yOffset="-160"/>
		<component base="cap" yOffset="992"/>
		<contour>
			<point x="0" y="-156" type="line"/>
			<point x="0" y="996" type="line"/>
			<point x="8" y="996" type="line"/>
			<point x="8" y="-156" type="line"/>
		</contour>
	</outline>
</glyph>
<glyph name="_118" format="2">
	<unicode hex="0176"/>
	<advance width="25"/>
	<outline>
		<component base="cap" yOffset="-180"/>
		<component base="cap" yOffset="992"/>
		<contour>
			<point x="0" y="-176" type="line"/>
			<point x="0" y="996" type="line"/>
			<point x="8" y="996" type="line"/>
			<point x="8" y="-176" type="line"/>
		</contour>
	</outline>
</glyph>
<glyph name="_122" format="2">
	<unicode hex="017A"/>
	<advance width="25"/>
	<outline>
		<component base="cap" yOffset="-220"/>
		<component base="cap" yOffset="992"/>
		<contour>
			<point x="0" y="-216" type="line"/>
			<point x="0" y="996" type="line"/>
			<point x="8" y="996" type="line"/>
			<point x="8" y="-216" type="line"/>
		</contour>
	</outline>
</glyph>
<glyph name="_126" format="2">
	<unicode hex="017E"/>
	<advance width="25"/>
	<outline>
		<component base="cap" yOffset="-260"/>
		<component base="cap" yOffset="992"/>
		<contour>
			<point x="0" y="-256" type="line"/>
			<point x="0" y="996" type="line"/>
			<point x="8" y="996" type="line"/>
			<point x="8" y="-256" type="line"/>
		</contour>
	</outline>
</glyph>
<glyph name="_127" format="2">
	<unicode hex="017F"/>
	<advance width="25"/>
	<outline>
		<component base="cap" yOffset="-270"/>
		<component base="cap" yOffset="992"/>
		<contour>
			<point x="0" y="-266" type="line"/>
			<point x="0" y="996" type="line"/>
			<point x="8" y="996" type="line"/>
			<point x="8" y="-266" type="line"/>
		</contour>
	</outline>
</glyph>
<glyph name="_1.clip" format="2">
	<advance width="25"/>
	<outline>
		<contour>
			<point x="0" y="997.75"/>
			<point x="2.25" y="1000"/>
			<point x="5" y="1000" type="curve" smooth="yes"/>
			<point x="3" y="1000" type="line"/>
			<point x="5.75" y="1000"/>
			<point x="8" y="997.75"/>
			<point x="8" y="995" type="curve" smooth="yes"/>
			<point x="8" y="995" type="line"/>
			<point x="8" y="992.25"/>
			<point x="5.75" y="990"/>
			<point x="3" y="990" type="curve" smooth="yes"/>
			<point x="5" y="990" type="line"/>
			<point x="2.25" y="990"/>
			<point x="0" y="992.25"/>
			<point x="0" y="995" type="curve" smooth="yes"/>
			<point x="0" y="995" type="line"/>
		</contour>
	</outline>
</glyph>
<glyph name="_13.clip" format="2">
	<advance width="25"/>
	<outline>
		<contour>
			<point x="0" y="970.75"/>
			<point x="29.25" y="1000"/>
			<point x="65" y="1000" type="curve" smooth="yes"/>
			<point x="-57" y="1000" type="line"/>
			<point x="-21.25" y="1000"/>
			<point x="8" y="970.75"/>
			<point x="8" y="935" type="curve" smooth="yes"/>
			<point x="8" y="935" type="line"/>
			<point x="8" y="899.25"/>
			<point x="-21.25" y="870"/>
			<point x="-57" y="870" type="curve" smooth="yes"/>
			<point x="65" y="870" type="line"/>
			<point x="29.25" y="870"/>
			<point x="0" y="899.25"/>
			<point x="0" y="935" type="curve" smooth="yes"/>
			<point x="0" y="935" type="line"/>
		</contour>
	</outline>
</glyph>
<glyph name="_14.clip" format="2">
	<advance width="25"/>
	<outline>
		<contour>
			<point x="0" y="968.5"/>
			<point x="31.5" y="1000"/>
			<point x="70" y="1000" type="curve" smooth="yes"/>
			<point x="-62" y="1000" type="line"/>
			<point x="-23.5" y="1000"/>
			<point x="8" y="968.5"/>
			<point x="8" y="930" type="curve" smooth="yes"/>
			<point x="8" y="930" type="line"/>
			<point x="8" y="891.5"/>
			<point x="-23.5" y="860"/>
			<point x="-62" y="860" type="curve" smooth="yes"/>
			<point x="70" y="860" type="line"/>
			<point x="31.5" y="860"/>
			<point x="0" y="891.5"/>
			<point x="0" y="930" type="curve" smooth="yes"/>
			<point x="0" y="930" type="line"/>
		</contour>
	</outline>
</glyph>
<glyph name="_16.clip" format="2">
	<advance width="25"/>
	<outline>
		<contour>
			<point x="0" y="964"/>
			<point x="36" y="1000"/>
			<point x="80" y="1000" type="curve" smooth="yes"/>
			<point x="-72" y="1000" type="line"/>
			<point x="-28" y="1000"/>
			<point x="8" y="964"/>
			<point x="8" y="920" type="curve" smooth="yes"/>
			<point x="8" y="920" type="line"/>
			<point x="8" y="876"/>
			<point x="-28" y="840"/>
			<point x="-72" y="840" type="curve" smooth="yes"/>
			<point x="80" y="840" type="line"/>
			<point x="36" y="840"/>
			<point x="0" y="876"/>
			<point x="0" y="920" type="curve" smooth="yes"/>
			<point x="0" y="920" type="line"/>
		</contour>
	</outline>
</glyph>
<glyph name="_20.clip" format="2">
	<advance width="25"/>
	<outline>
		<contour>
			<point x="0" y="955"/>
			<point x="44" y="1000"/>
			<point x="100" y="1000" type="curve" smooth="yes"/>
			<point x="-92" y="1000" type="line"/>
			<point x="-36" y="1000"/>
			<point x="8" y="955"/>
			<point x="8" y="900" type="curve" smooth="yes"/>
			<point x="8" y="900" type="line"/>
			<point x="8" y="845"/>
			<point x="-36" y="800"/>
			<point x="-92" y="800" type="curve" smooth="yes"/>
			<point x="100" y="800" type="line"/>
			<point x="44" y="800"/>
			<point x="0" y="845"/>
			<point x="0" y="900" type="curve" smooth="yes"/>
			<point x="0" y="900" type="line"/>
		</contour>
	</outline>
</glyph>
<glyph name="_25.clip" format="2">
	<advance width="25"/>
	<outline>
		<contour>
			<point x="0" y="943.75"/>
			<point x="56.25" y="1000"/>
			<point x="125" y="1000" type="curve" smooth="yes"/>
			<point x="-117" y="1000" type="line"/>
			<point x="-48.25" y="1000"/>
			<point x="8" y="943.75"/>
			<point x="8" y="875" type="curve" smooth="yes"/>
			<point x="8" y="875" type="line"/>
			<point x="8" y="806.25"/>
			<point x="-48.25" y="750"/>
			<point x="-117" y="750" type="curve" smooth="yes"/>
			<point x="125" y="750" type="line"/>
			<point x="56.25" y="750"/>
			<point x="0" y="806.25"/>
			<point x="0" y="875" type="curve" smooth="yes"/>
			<point x="0" y="875" type="line"/>
		</contour>
	</outline>
</glyph>
<glyph name="_9.clip" format="2">
	<advance width="25"/>
	<outline>
		<contour>
			<point x="0" y="979.75"/>
			<point x="20.25" y="1000"/>
			<point x="45" y="1000" type="curve" smooth="yes"/>
			<point x="-37" y="1000" type="line"/>
			<point x="-12.25" y="1000"/>
			<point x="8" y="979.75"/>
			<point x="8" y="955" type="curve" smooth="yes"/>
			<point x="8" y="955" type="line"/>
			<point x="8" y="930.25"/>
			<point x="-12.25" y="910"/>
			<point x="-37" y="910" type="curve" smooth="yes"/>
			<point x="45" y="910" type="line"/>
			<point x="20.25" y="910"/>
			<point x="0" y="930.25"/>
			<point x="0" y="955" type="curve" smooth="yes"/>
			<point x="0" y="955" type="line"/>
		</contour>
	</outline>
</glyph>
